<svg xmlns="http://www.w3.org/2000/svg" width="748.7" height="196" viewBox="0 0 748.7 196">
  <defs>
    <style>
      .cls-1 {
        fill: #ac1f24;
      }

      .cls-2 {
        fill: none;
        stroke: #e73a23;
        stroke-miterlimit: 10;
      }
    </style>
  </defs>
  <g id="Logo-base">
    <g>
      <path id="path1156" class="cls-1" d="M34.8,96.82a.58.58,0,0,0-.6.6.58.58,0,0,0,.6.61H167.63a.58.58,0,0,0,.6-.61.58.58,0,0,0-.6-.6Z"/>
      <path id="path1160" class="cls-1" d="M35.11,90.18a.6.6,0,1,0,0,1.2H167.53a.6.6,0,0,0,0-1.2Z"/>
      <path id="path1164" class="cls-1" d="M35.91,83.74a.58.58,0,0,0-.6.6.65.65,0,0,0,.6.6H166.52a.58.58,0,0,0,.61-.6.65.65,0,0,0-.61-.6Z"/>
      <path id="path1168" class="cls-1" d="M37.52,77.2a.58.58,0,0,0-.6.6.65.65,0,0,0,.6.6H165a.58.58,0,0,0,.61-.6.65.65,0,0,0-.61-.6Z"/>
      <path id="path1172" class="cls-1" d="M39.84,70.55a.59.59,0,0,0-.61.61.58.58,0,0,0,.61.6H162.6a.58.58,0,0,0,.6-.6.58.58,0,0,0-.6-.61Z"/>
      <path id="path1176" class="cls-1" d="M43,64a.58.58,0,0,0-.6.61.58.58,0,0,0,.6.6H159.38a.58.58,0,0,0,.6-.6.58.58,0,0,0-.6-.61Z"/>
      <path id="path1180" class="cls-1" d="M53.82,57.57a.58.58,0,0,0-.6.61.58.58,0,0,0,.6.6H155.35a.58.58,0,0,0,.61-.6.59.59,0,0,0-.61-.61Z"/>
      <path id="path1184" class="cls-1" d="M53.82,51a.58.58,0,0,0-.6.61.58.58,0,0,0,.6.6h96.3a.58.58,0,0,0,.6-.6h0a.58.58,0,0,0-.6-.61Z"/>
      <path id="path1188" class="cls-1" d="M59.46,44.39a.61.61,0,1,0,0,1.21h83.62a.58.58,0,0,0,.6-.6h0a.58.58,0,0,0-.6-.61Z"/>
      <path id="path1192" class="cls-1" d="M69.12,37.85a.61.61,0,1,0,0,1.21h64.1a.61.61,0,0,0,0-1.21Z"/>
      <path id="path1196" class="cls-1" d="M158.67,62.61a.58.58,0,0,0-.6.6V97.42a.61.61,0,1,0,1.21,0v-34C159.28,63,159.08,62.61,158.67,62.61Z"/>
      <path id="path1200" class="cls-1" d="M152.13,53.35a.58.58,0,0,0-.6.6V97.52a.58.58,0,0,0,.6.61.66.66,0,0,0,.61-.61V54.05A.57.57,0,0,0,152.13,53.35Z"/>
      <path id="path1204" class="cls-1" d="M145.49,46.51a.58.58,0,0,0-.6.6V97.42a.58.58,0,0,0,.6.61.66.66,0,0,0,.61-.61V47.11C146.2,46.81,145.89,46.51,145.49,46.51Z"/>
      <path id="path1208" class="cls-1" d="M139.05,41.47a.58.58,0,0,0-.6.61h0v55a.58.58,0,0,0,.6.6h0a.58.58,0,0,0,.61-.6v-55A.59.59,0,0,0,139.05,41.47Z"/>
      <path id="path1212" class="cls-1" d="M132.51,37.35a.58.58,0,0,0-.6.6h0V97.32a.58.58,0,0,0,.6.6.58.58,0,0,0,.61-.6V38a.58.58,0,0,0-.61-.6Z"/>
      <path id="path1216" class="cls-1" d="M126,34.33a.58.58,0,0,0-.6.6V97.52a.58.58,0,0,0,.6.61.65.65,0,0,0,.6-.61V34.93C126.68,34.53,126.37,34.33,126,34.33Z"/>
      <path id="path1220" class="cls-1" d="M119.33,32a.58.58,0,0,0-.6.6v64.8a.6.6,0,1,0,1.2,0V32.72A.6.6,0,0,0,119.33,32Z"/>
      <path id="path1224" class="cls-1" d="M112.79,30.61a.58.58,0,0,0-.61.6V97.52a.59.59,0,0,0,.61.61.58.58,0,0,0,.6-.61V31.21C113.49,30.81,113.19,30.61,112.79,30.61Z"/>
      <path id="path1228" class="cls-1" d="M106.35,29.6a.58.58,0,0,0-.61.6V97.52a.59.59,0,0,0,.61.61.65.65,0,0,0,.6-.61V30.3A.75.75,0,0,0,106.35,29.6Z"/>
      <path id="path1232" class="cls-1" d="M99.71,29.6a.58.58,0,0,0-.61.6V97.52a.59.59,0,0,0,.61.61.58.58,0,0,0,.6-.61V30.3C100.31,29.9,100.11,29.6,99.71,29.6Z"/>
      <path id="path1236" class="cls-1" d="M93.17,30.1a.58.58,0,0,0-.61.61V97.52a.59.59,0,0,0,.61.61.65.65,0,0,0,.6-.61V30.71A.58.58,0,0,0,93.17,30.1Z"/>
      <path id="path1240" class="cls-1" d="M86.53,31.31a.58.58,0,0,0-.61.6V97.42a.61.61,0,1,0,1.21,0V32C87.33,31.61,86.93,31.31,86.53,31.31Z"/>
      <path id="path1244" class="cls-1" d="M80,33.12a.58.58,0,0,0-.6.61V97.42a.61.61,0,1,0,1.21,0V33.73C80.69,33.42,80.39,33.12,80,33.12Z"/>
      <path id="path1248" class="cls-1" d="M73.34,35.74a.58.58,0,0,0-.6.6V97.52a.61.61,0,1,0,1.21,0V36.34C74.15,35.94,73.75,35.74,73.34,35.74Z"/>
      <path id="path1252" class="cls-1" d="M53.82,49.52a.58.58,0,0,0-.6.61V97.52a.58.58,0,0,0,.6.61.59.59,0,0,0,.61-.61V50.23C54.43,49.83,54.22,49.52,53.82,49.52Z"/>
      <path id="path1256" class="cls-1" d="M47.18,56.47a.58.58,0,0,0-.6.6V97.42a.6.6,0,1,0,1.2,0V57.17C48,56.77,47.58,56.47,47.18,56.47Z"/>
      <path id="path1260" class="cls-1" d="M40.64,70.55a.58.58,0,0,0-.6.61V97.42a.6.6,0,1,0,1.2,0V71.16C41.34,70.86,41,70.55,40.64,70.55Z"/>
      <path id="path1264" class="cls-1" d="M66.9,39.16a.58.58,0,0,0-.6.6h0V97.52a.58.58,0,0,0,.6.61.66.66,0,0,0,.61-.61V39.76a.74.74,0,0,0-.61-.6Z"/>
      <path id="path1268" class="cls-1" d="M60.36,43.69a.58.58,0,0,0-.6.6V97.42a.61.61,0,1,0,1.21,0v-53C61,44,60.77,43.69,60.36,43.69Z"/>
      <path id="path1272" class="cls-1" d="M101.22,156.09a.6.6,0,1,0,0,1.2h28.47a.6.6,0,1,0,0-1.2Z"/>
      <path id="path1276" class="cls-1" d="M101.22,149.65a.6.6,0,1,0,0,1.2h39.34a.6.6,0,1,0,0-1.2Z"/>
      <path id="path1280" class="cls-1" d="M101.32,143a.58.58,0,0,0-.61.6.65.65,0,0,0,.61.6h47a.58.58,0,0,0,.6-.6.65.65,0,0,0-.6-.6Z"/>
      <path id="path1284" class="cls-1" d="M101.32,136.46a.59.59,0,0,0-.61.61.65.65,0,0,0,.61.6h52.73a.58.58,0,0,0,.6-.6.65.65,0,0,0-.6-.61Z"/>
      <path id="path1288" class="cls-1" d="M55.23,129.92a.58.58,0,0,0-.6.61.65.65,0,0,0,.6.6H158.37a.58.58,0,0,0,.61-.6.66.66,0,0,0-.61-.61Z"/>
      <path id="path1292" class="cls-1" d="M40.84,123.38a.58.58,0,0,0-.6.61h0a.58.58,0,0,0,.6.6h121a.61.61,0,1,0,0-1.21h-121Z"/>
      <path id="path1296" class="cls-1" d="M153.74,123.38a.58.58,0,0,0-.6.61h0v13.38a.58.58,0,0,0,.6.6.65.65,0,0,0,.61-.6V124a.66.66,0,0,0-.61-.61Z"/>
      <path id="path1300" class="cls-1" d="M147.2,123.38a.58.58,0,0,0-.6.61h0v20.73a.61.61,0,0,0,1.21,0V124a.59.59,0,0,0-.61-.61Z"/>
      <path id="path1304" class="cls-1" d="M140.56,123.38a.58.58,0,0,0-.6.61h0v26.16a.58.58,0,0,0,.6.6.65.65,0,0,0,.61-.6V124c.1-.3-.21-.61-.61-.61Z"/>
      <path id="path1308" class="cls-1" d="M134,123.38a.58.58,0,0,0-.6.61h0v30.49a.58.58,0,0,0,.6.6.65.65,0,0,0,.6-.6V124a.58.58,0,0,0-.6-.61Z"/>
      <path id="path1312" class="cls-1" d="M127.48,123.38a.58.58,0,0,0-.6.61h0V157.8a.58.58,0,0,0,.6.6.65.65,0,0,0,.6-.6V124.09a.57.57,0,0,0-.6-.71Z"/>
      <path id="path1316" class="cls-1" d="M121,123.38a.58.58,0,0,0-.6.61h0v36.12a.6.6,0,1,0,1.2,0V124a.58.58,0,0,0-.6-.61Z"/>
      <path id="path1320" class="cls-1" d="M114.4,123.38a.59.59,0,0,0-.61.61h0v37.83a.59.59,0,0,0,.61.61.58.58,0,0,0,.6-.61V124a.58.58,0,0,0-.6-.61Z"/>
      <path id="path1324" class="cls-1" d="M107.86,123.38a.59.59,0,0,0-.61.61h0v38.74a.58.58,0,0,0,.61.6.65.65,0,0,0,.6-.6V124a.58.58,0,0,0-.6-.61Z"/>
      <path id="path1328" class="cls-1" d="M40.64,96.82a.58.58,0,0,0-.6.6.58.58,0,0,0,.6.61h13a.58.58,0,0,0,.6-.61.58.58,0,0,0-.6-.6Z"/>
      <g id="g1334">
        <path id="path1336" class="cls-1" d="M67,77.84H60.41V97.46h13V84.38H66.85C67,84.38,67,77.84,67,77.84Z"/>
        <path id="path1338" class="cls-1" d="M60.31,77.54a.32.32,0,0,0-.3.3V97.46a.32.32,0,0,0,.3.3h13a.32.32,0,0,0,.3-.3V84.38a.32.32,0,0,0-.3-.3H67.05V77.84a.32.32,0,0,0-.3-.3Zm.4.6h6v6.24a.32.32,0,0,0,.3.3h6.24V97.16H60.71Z"/>
      </g>
      <g id="g1340">
        <path id="path1342" class="cls-1" d="M93.11,51.68h6.54V97.56H80V45.24h6.54V64.76h6.54Z"/>
        <path id="path1344" class="cls-1" d="M80,44.83a.32.32,0,0,0-.3.31V97.46a.32.32,0,0,0,.3.3H99.65a.33.33,0,0,0,.31-.3V51.68a.34.34,0,0,0-.31-.31H93.21a.32.32,0,0,0-.3.31h0V64.35h-6V45a.32.32,0,0,0-.3-.3C86.67,44.83,80,44.83,80,44.83Zm.3.61h6V64.76a.32.32,0,0,0,.3.3h6.54a.33.33,0,0,0,.31-.3V52.08h6V97.26H80.33Z"/>
      </g>
      <path id="path1348" class="cls-1" d="M40.84,101.55a.58.58,0,0,0-.6.6v18a.58.58,0,0,0,.6.61H161.19a.58.58,0,0,0,.6-.61v-18a.58.58,0,0,0-.6-.6Zm.61,1.31h119v16.7h-119Z"/>
      <path id="path1352" class="cls-1" d="M113.9,101.35l-.91.9v18l.91.91h20.22l.91-.91v-18l-.91-.9Zm.9,1.61h18.52v16.3H114.8Z"/>
      <path id="path1356" class="cls-1" d="M124,101.35a.9.9,0,0,0-.91.9v18a.91.91,0,1,0,1.81,0h0v-18a.9.9,0,0,0-.9-.9Z"/>
      <path id="path1360" class="cls-1" d="M50.27,105.17a.91.91,0,0,0-.8.4l-.89,1.51h-7a.9.9,0,0,0-.89.91h0a.89.89,0,0,0,.89.9h7.54a.9.9,0,0,0,.79-.4l.4-.6.39.6,1,2c.3.41.8.61,1.09.41l.4-.41,1.09-2,.4-.6.39.6,1.09,2a1,1,0,0,0,1.1.41l.39-.41,1-2,.4-.6.4.6,1,2c.3.41.79.61,1.09.41l.39-.41.9-1.61H82.88a.8.8,0,0,0,.79-.5l.3-.6.4.6,1.09,2a1,1,0,0,0,1.09.4l.4-.4,1.09-2,.39-.6.3.6h0l1.09,2a1,1,0,0,0,1.09.4l.4-.4,1.09-2h0l.3-.6.39.6h0l1.09,2a1,1,0,0,0,1.09.4l.4-.4.79-1.61h46.89a.91.91,0,0,0,.8-.4l.39-.81.4.61,1.09,2a1,1,0,0,0,1.09.4l.4-.4,1-2,.4-.61.39.61h0l1.09,2a1,1,0,0,0,1.09.4l.4-.4,1.09-2h0l.4-.61.39.61,1,2c.3.4.8.6,1.1.4l.39-.4.89-1.61h3.77a.91.91,0,0,0,0-1.81h-4.26a.8.8,0,0,0-.79.5l-.4.61-.3-.61h0l-1.09-2A.84.84,0,0,0,153,105l-.4.4-1,2-.39.81-.4-.81-1-2c-.3-.4-.8-.6-1.09-.4-.1.1-.3.1-.4.4l-1.09,2h0l-.3.61-.39-.61h0l-1.09-2a1,1,0,0,0-1.09-.4c-.1.1-.3.1-.4.4l-.89,1.61H95.57a.81.81,0,0,0-.79.5l-.3.61-.4-.61-1.09-2a1,1,0,0,0-1.09-.4l-.39.4-1,2-.39.81-.4-.81-1-2c-.3-.4-.79-.6-1.09-.4l-.4.4-1.09,2h0l-.29.61-.4-.61h0l-1-2a1,1,0,0,0-1.09-.4l-.4.4L82.19,107H62.06a.82.82,0,0,0-.79.5l-.3.61-.29-.61h0l-1.1-2a1,1,0,0,0-1.09-.4c-.09.1-.29.1-.39.4l-1.09,2h0l-.4.61-.4-.61h0l-1.09-2a1,1,0,0,0-1.09-.4l-.39.4-1.09,2h0l-.1.61-.3-.61h0l-1.09-2a1.6,1.6,0,0,0-.79-.3Z"/>
      <path id="path1364" class="cls-1" d="M64.27,111.21a.73.73,0,0,0-.79.5l-.8,1.51H41.54a.9.9,0,0,0-.89.91h0a.89.89,0,0,0,.89.9H63.08a.81.81,0,0,0,.79-.5l.3-.61.39.61,1.09,2a1,1,0,0,0,1.09.4l.39-.4,1.09-2,.39-.61.4.61,1.09,2a1,1,0,0,0,1.08.4l.4-.4,1.08-2,.4-.61.3.61h0l1.08,2a.84.84,0,0,0,1.09.3c.1-.1.3-.1.4-.4l.89-1.51h20a.9.9,0,0,0,.79-.4l.39-.61.4.61,1.08,2a1,1,0,0,0,1.09.4l.4-.4,1.08-2h0l.4-.61.39.61,1.09,2a1,1,0,0,0,1.09.4l.39-.4,1-2,.4-.61.39.61,1,2c.29.4.79.6,1.09.4l.39-.4.89-1.51H138a.89.89,0,0,0,.79-.4l.4-.61.39.61h0l1.09,2a1,1,0,0,0,1.08.4c.1-.1.3-.1.4-.4l1.09-2h0l.29-.61.4.61,1.09,2a1,1,0,0,0,1.08.4l.4-.4,1.08-2h0l.4-.61.39.61,1,2c.3.4.79.6,1.09.4.1-.1.3-.1.4-.4l.88-1.61h9.19a.91.91,0,0,0,0-1.81h-9.68a.89.89,0,0,0-.79.4l-.4.61-.39-.61h0l-1.09-2a.83.83,0,0,0-1.08-.3l-.4.4-1,2-.39.61-.4-.61h0l-1.09-2a.83.83,0,0,0-1.08-.3l-.4.4-1,2-.39.61-.4-.61-1-2c-.3-.4-.79-.6-1.09-.4-.1.1-.3.1-.4.4l-.89,1.61H109.23a.91.91,0,0,0-.8.4l-.19.71-.3-.61h0l-1.09-2.31a1,1,0,0,0-1.08-.4c-.1.1-.3.1-.4.4l-1,2h0l-.29.61-.4-.61h0l-1.09-2a.83.83,0,0,0-1.08-.3l-.4.4-1,2-.39.61-.4-.81-1.08-2a1,1,0,0,0-1.09-.4l-.39.4L95.89,113H76a.9.9,0,0,0-.79.4l-.39.6-.4-.6-1-2a1,1,0,0,0-1.09-.4l-.4.4-1.08,2-.4.6-.39-.6-.89-1.91a1,1,0,0,0-1.09-.4l-.4.4-1.08,2-.4.61-.39-.61-1.09-2c0-.2-.3-.3-.49-.3Z"/>
      <g id="g1366">
        <path id="path1368" class="cls-1" d="M113.74,120.2H134v1.51H113.74Z"/>
        <path id="path1370" class="cls-1" d="M113.74,119.5a.58.58,0,0,0-.6.6v1.51a.58.58,0,0,0,.6.6H134a.58.58,0,0,0,.6-.6V120.1a.58.58,0,0,0-.6-.6Zm.71,1.41h18.81v.3H114.45Z"/>
      </g>
      <g id="g1372">
        <path id="path1374" class="cls-1" d="M113.74,100.58H134v1.51H113.74Z"/>
        <path id="path1376" class="cls-1" d="M113.74,100a.58.58,0,0,0-.6.6v1.51a.58.58,0,0,0,.6.6H134a.58.58,0,0,0,.6-.6v-1.51a.58.58,0,0,0-.6-.6Zm.81,1.3h18.91v.31H114.55Z"/>
      </g>
    </g>
    <line class="cls-2" x1="428.6" y1="75.2" x2="428.6" y2="126.2"/>
    <polygon class="cls-1" points="100.95 164.61 100.95 124.1 81.33 124.1 81.33 137.3 74.8 137.3 74.8 124.1 61.7 124.1 61.7 137.2 55.2 137.2 55.2 124.1 40.8 124.1 40.8 136.4 47.75 144.36 54.1 150.95 62.73 155.9 74.56 160.71 86.85 163.92 100.95 164.61"/>
    <polygon class="cls-1" points="53.7 49.4 53.7 97.6 40 97.6 40 70.3 47.13 70.3 47.13 54.72 53.7 49.4"/>
  </g>
  <g id="Dept-Text">
    <g>
      <path id="path138" class="cls-1" d="M514.6,67.2H491.8V31.6h22.8v6.9H499.9v6.1h13.7v6.9H499.9v8.8h14.7Z"/>
      <path id="path140" d="M535.8,61.4H523.6V35h2.6V58.3h9.6v3.1Z"/>
      <path id="path142" d="M555.4,61.4H542.7V35h12.7v3.1H545.3v7.2h10.1v3.1H545.3v9.8h10.1Z"/>
      <path id="path144" d="M578.8,59.5a6.22,6.22,0,0,0-1.2.8c-.4.2-.9.5-1.5.8a8.51,8.51,0,0,1-1.7.6,11.24,11.24,0,0,1-2,.2,7.86,7.86,0,0,1-3.8-.8,8.93,8.93,0,0,1-3-2.5,11.41,11.41,0,0,1-1.9-4.3,22.25,22.25,0,0,1-.7-6.1,21.71,21.71,0,0,1,.7-5.9,15,15,0,0,1,1.9-4.4,7.13,7.13,0,0,1,2.9-2.6,8.19,8.19,0,0,1,3.8-.9,8.4,8.4,0,0,1,3.1.5,11.29,11.29,0,0,1,3.4,1.8v4.1h-.2a9.17,9.17,0,0,0-3.2-2.6,6.69,6.69,0,0,0-3.3-.8,5.19,5.19,0,0,0-2.7.7,7.86,7.86,0,0,0-2.1,2,11,11,0,0,0-1.4,3.3,21.85,21.85,0,0,0-.5,4.7,22.83,22.83,0,0,0,.5,4.8,7.92,7.92,0,0,0,1.4,3.2,6.63,6.63,0,0,0,2.1,2,4.75,4.75,0,0,0,2.6.6,6.65,6.65,0,0,0,3.4-.9,10.41,10.41,0,0,0,3-2.6h.2Z"/>
      <path id="path146" d="M600.6,38.1h-6.8V61.4h-2.6V38.1h-6.8V35h16.2v3.1Z"/>
      <path id="path148" d="M623.5,61.4h-3.3L613.7,51h-3.6V61.5h-2.6V35h5.3a11.74,11.74,0,0,1,2.9.3,6.06,6.06,0,0,1,2.1,1.1,6.34,6.34,0,0,1,1.6,2.3,8.62,8.62,0,0,1,.6,3.4,9,9,0,0,1-1.1,4.8,7.13,7.13,0,0,1-2.8,2.9Zm-5.9-18.9a6,6,0,0,0-.3-2,4.62,4.62,0,0,0-.9-1.5,2.73,2.73,0,0,0-1.3-.7,8.81,8.81,0,0,0-1.7-.2h-3v10H613a12.48,12.48,0,0,0,2.1-.2,3.27,3.27,0,0,0,1.5-1.1,3.37,3.37,0,0,0,.8-1.7,18.36,18.36,0,0,0,.2-2.6Z"/>
      <path id="path150" d="M637.2,61.4h-7.6V58.8h2.5v-21h-2.5V35h7.6v2.6h-2.5V58.7h2.5Z"/>
      <path id="path152" d="M660.9,59.5a6.22,6.22,0,0,0-1.2.8c-.4.2-.9.5-1.5.8a8.51,8.51,0,0,1-1.7.6,11.24,11.24,0,0,1-2,.2,7.86,7.86,0,0,1-3.8-.8,8.93,8.93,0,0,1-3-2.5,11.41,11.41,0,0,1-1.9-4.3,22.25,22.25,0,0,1-.7-6.1,21.71,21.71,0,0,1,.7-5.9,13.62,13.62,0,0,1,1.9-4.4,7.13,7.13,0,0,1,2.9-2.6,8.19,8.19,0,0,1,3.8-.9,8.4,8.4,0,0,1,3.1.5,14.14,14.14,0,0,1,3.4,1.8v4.1h-.2a9.17,9.17,0,0,0-3.2-2.6,6.45,6.45,0,0,0-3.3-.8,5.19,5.19,0,0,0-2.7.7,7.86,7.86,0,0,0-2.1,2,11,11,0,0,0-1.4,3.3,21.85,21.85,0,0,0-.5,4.7,22.83,22.83,0,0,0,.5,4.8,7.92,7.92,0,0,0,1.4,3.2,6.63,6.63,0,0,0,2.1,2,4.75,4.75,0,0,0,2.6.6,6.65,6.65,0,0,0,3.4-.9,10.41,10.41,0,0,0,3-2.6h.2Z"/>
      <path id="path154" d="M684.1,61.4h-2.7L679.5,54h-8.2l-1.9,7.4h-2.6l7-26.4h3.4Zm-5.4-10.3-3.3-13-3.3,13Z"/>
      <path id="path156" d="M703.6,61.4H691.4V35H694V58.3h9.6v3.1Z"/>
      <path id="path158" d="M729.6,40.3a4,4,0,0,0-.7-2.6,2,2,0,0,0-1.8-.9,2.17,2.17,0,0,0-1.9,1.1,4.41,4.41,0,0,0-.7,2.6,6,6,0,0,0,.5,2.4,7.67,7.67,0,0,0,2.2,2.4,4.72,4.72,0,0,0,1.9-1.8,14.33,14.33,0,0,0,.5-3.2Zm2.5,15.6-6.2-8.3a5.72,5.72,0,0,1-.8.7c-.2.2-.5.7-.8,1.1a16.19,16.19,0,0,0-.6,1.7,7.84,7.84,0,0,0-.2,2.2,6.43,6.43,0,0,0,1.1,4.1,3.63,3.63,0,0,0,3.2,1.6,3.41,3.41,0,0,0,2.3-.8,5.68,5.68,0,0,0,2-2.3Zm3.8-10.6V47a27.48,27.48,0,0,1-.3,3.8,16.82,16.82,0,0,1-1.1,4l4.8,6.5h-3.1l-2.9-4a11.39,11.39,0,0,1-3,3.6,5.55,5.55,0,0,1-7.6-1.2,8.51,8.51,0,0,1-1.7-5.6,12.92,12.92,0,0,1,.3-2.9c.2-.8.5-1.5.7-2.1a15.26,15.26,0,0,1,1.1-1.6,15.93,15.93,0,0,1,1.3-1.3,9.3,9.3,0,0,1-2.1-2.5,7.94,7.94,0,0,1-.6-3.2,9.08,9.08,0,0,1,.3-2.3,7.5,7.5,0,0,1,1-2,4.74,4.74,0,0,1,1.7-1.4,4.56,4.56,0,0,1,2.2-.6,4.68,4.68,0,0,1,3.6,1.6,5.64,5.64,0,0,1,1.4,3.9,9.85,9.85,0,0,1-.2,1.7,3.8,3.8,0,0,1-.5,1.7,6.58,6.58,0,0,1-3.2,3.1l4.7,6.4a7.77,7.77,0,0,0,.2-1.6,9.7,9.7,0,0,0,.1-1.7V45Z"/>
    </g>
    <g>
      <path id="path180" class="cls-1" d="M514.6,162.9H491.8V127.2h22.8v6.9H499.9v6.2h13.7v6.9H499.9V156h14.7Z"/>
      <g id="g202">
        <path id="path182" d="M538.3,162.9h-3.2L526,139.2v23.7h-2.4V136.5h3.9l8.2,21.6V136.5h2.4Z"/>
        <path id="path184" d="M563.9,161a15.44,15.44,0,0,1-3.4,1.7,11.49,11.49,0,0,1-3.6.7,9.39,9.39,0,0,1-4.1-.8,8.7,8.7,0,0,1-3.2-2.5,11.52,11.52,0,0,1-2.1-4.3,22.25,22.25,0,0,1-.7-6.1c0-4.3.9-7.6,2.7-10a8.75,8.75,0,0,1,7.4-3.7,9.6,9.6,0,0,1,3.3.6,12.49,12.49,0,0,1,3.7,1.8v4.1h-.2a15.56,15.56,0,0,0-1.2-1.1,14.31,14.31,0,0,0-1.5-1.1,9.26,9.26,0,0,0-2-.9,9.78,9.78,0,0,0-2.6-.3,5.66,5.66,0,0,0-5.1,2.9,14.15,14.15,0,0,0-1.8,7.7,15,15,0,0,0,1.9,8,6.43,6.43,0,0,0,5.3,2.9,10.68,10.68,0,0,0,2.5-.3,7.26,7.26,0,0,0,2.2-.9V153h-5.2v-3.1h7.7V161Z"/>
        <path id="path186" d="M579.5,162.9h-7.6v-2.6h2.5v-21h-2.5v-2.8h7.6v2.6H577v21h2.5Z"/>
        <path id="path188" d="M603,162.9h-3.2l-9.1-23.7v23.7h-2.4V136.5h3.9l8.2,21.6V136.5h2.4Z"/>
        <path id="path190" d="M625.2,162.9H612.5V136.5h12.7v3.1H615.1v7.2h10.1v3.1H615.1v9.8h10.1Z"/>
        <path id="path192" d="M646.4,162.9H633.7V136.5h12.7v3.1H636.3v7.2h10.1v3.1H636.3v9.8h10.1Z"/>
        <path id="path194" d="M670.8,162.9h-3.3l-6.4-10.5h-3.6v10.5h-2.6V136.5h5.3a11.74,11.74,0,0,1,2.9.3,6.06,6.06,0,0,1,2.1,1.1,6.34,6.34,0,0,1,1.6,2.3,8.62,8.62,0,0,1,.6,3.4,9,9,0,0,1-1.1,4.8,7.13,7.13,0,0,1-2.8,2.9Zm-6-18.9a6,6,0,0,0-.3-2,4.62,4.62,0,0,0-.9-1.5,2.73,2.73,0,0,0-1.3-.7,8.81,8.81,0,0,0-1.7-.2h-3v10h2.6a12.48,12.48,0,0,0,2.1-.2,3.27,3.27,0,0,0,1.5-1.1,3.37,3.37,0,0,0,.8-1.7,21.12,21.12,0,0,0,.2-2.6Z"/>
        <path id="path196" d="M684.4,162.9h-7.6v-2.6h2.5v-21h-2.5v-2.8h7.6v2.6h-2.5v21h2.5Z"/>
        <path id="path198" d="M707.9,162.9h-3.2l-9.1-23.7v23.7h-2.4V136.5h3.9l8.2,21.6V136.5h2.4Z"/>
        <path id="path200" d="M733.5,161a15.44,15.44,0,0,1-3.4,1.7,11.49,11.49,0,0,1-3.6.7,9.39,9.39,0,0,1-4.1-.8,8.7,8.7,0,0,1-3.2-2.5,11.52,11.52,0,0,1-2.1-4.3,22.25,22.25,0,0,1-.7-6.1c0-4.3.9-7.6,2.7-10a8.75,8.75,0,0,1,7.4-3.7,9.6,9.6,0,0,1,3.3.6,12.49,12.49,0,0,1,3.7,1.8v4.1h-.2a15.56,15.56,0,0,0-1.2-1.1,7.17,7.17,0,0,0-1.5-1.1,9.26,9.26,0,0,0-2-.9,9.78,9.78,0,0,0-2.6-.3,5.66,5.66,0,0,0-5.1,2.9,14.15,14.15,0,0,0-1.8,7.7,15,15,0,0,0,1.9,8,6.43,6.43,0,0,0,5.3,2.9,10.68,10.68,0,0,0,2.5-.3,7.26,7.26,0,0,0,2.2-.9V153h-5.2v-3.1h7.7V161Z"/>
      </g>
    </g>
    <g>
      <path id="path160" d="M537.9,110.9H525.8V84.5h2.6v23.3H538Z"/>
      <path id="path162" d="M560.3,110.9H547.6V84.5h12.7v3.1H550.2v7.2h10.1v3.1H550.2v9.8h10.1Z"/>
      <path id="path164" d="M586.2,108.9a6.22,6.22,0,0,0-1.2.8c-.4.2-.9.5-1.5.8a8.51,8.51,0,0,1-1.7.6,11.24,11.24,0,0,1-2,.2,7.86,7.86,0,0,1-3.8-.8,8.93,8.93,0,0,1-3-2.5,11.41,11.41,0,0,1-1.9-4.3,22.25,22.25,0,0,1-.7-6.1,21.71,21.71,0,0,1,.7-5.9,13.62,13.62,0,0,1,1.9-4.4,7.93,7.93,0,0,1,2.9-2.6,8.19,8.19,0,0,1,3.8-.9,8.4,8.4,0,0,1,3.1.5,11.29,11.29,0,0,1,3.4,1.8v4.1H586a9.17,9.17,0,0,0-3.2-2.6,6.45,6.45,0,0,0-3.3-.8,5.19,5.19,0,0,0-2.7.7,7.86,7.86,0,0,0-2.1,2,11,11,0,0,0-1.4,3.3,21.85,21.85,0,0,0-.5,4.7,22.83,22.83,0,0,0,.5,4.8,7.92,7.92,0,0,0,1.4,3.2,6.63,6.63,0,0,0,2.1,2,4.75,4.75,0,0,0,2.6.6,6.65,6.65,0,0,0,3.4-.9,10.41,10.41,0,0,0,3-2.6h.2Z"/>
      <path id="path166" d="M610.7,87.6h-6.8v23.3h-2.6V87.6h-6.8V84.5h16.2v3.1Z"/>
      <path id="path168" d="M636.4,110.9H633l-6.4-10.5H623v10.5h-2.6V84.5h5.3a11.74,11.74,0,0,1,2.9.3,6.06,6.06,0,0,1,2.1,1.1,6.34,6.34,0,0,1,1.6,2.3,8.62,8.62,0,0,1,.6,3.4,9,9,0,0,1-1.1,4.8,7.13,7.13,0,0,1-2.8,2.9Zm-6-19.1a6,6,0,0,0-.3-2,4.62,4.62,0,0,0-.9-1.5,2.73,2.73,0,0,0-1.3-.7,8.81,8.81,0,0,0-1.7-.2h-3v10h2.6a12.48,12.48,0,0,0,2.1-.2,3.27,3.27,0,0,0,1.5-1.1,3.37,3.37,0,0,0,.8-1.7,18.36,18.36,0,0,0,.2-2.6Z"/>
      <path id="path170" d="M660.3,87.4a11.9,11.9,0,0,1,1.7,4.4,25.8,25.8,0,0,1,.7,5.9,21.71,21.71,0,0,1-.7,5.9,15.43,15.43,0,0,1-1.7,4.3,7,7,0,0,1-2.8,2.6,8.78,8.78,0,0,1-3.7.9,7.79,7.79,0,0,1-3.7-.9,8.63,8.63,0,0,1-2.8-2.6,13.93,13.93,0,0,1-1.7-4.4,26.13,26.13,0,0,1-.6-5.9,23.73,23.73,0,0,1,.6-5.7,13.54,13.54,0,0,1,1.8-4.4,7,7,0,0,1,2.8-2.6,7.51,7.51,0,0,1,3.7-.9,7.79,7.79,0,0,1,3.7.9,7.92,7.92,0,0,1,2.7,2.5Zm-.2,10.3c0-3.4-.6-6.1-1.7-7.9a5.31,5.31,0,0,0-4.6-2.8,5.12,5.12,0,0,0-4.6,2.8,15.71,15.71,0,0,0-1.7,7.9c0,3.4.6,6.1,1.7,7.9a5.43,5.43,0,0,0,4.6,2.8,5.23,5.23,0,0,0,4.6-2.8c1.1-1.8,1.7-4.5,1.7-7.9Z"/>
      <path id="path172" d="M688.6,110.9h-3.2l-9.1-23.7v23.7h-2.4V84.5h3.9l8.2,21.6V84.5h2.4Z"/>
      <path id="path174" d="M707.6,110.9H700v-2.6h2.5V87.1H700V84.5h7.6v2.6h-2.5v21h2.5Z"/>
      <path id="path176" d="M733.9,108.9a6.22,6.22,0,0,0-1.2.8c-.4.2-.9.5-1.5.8a8.51,8.51,0,0,1-1.7.6,11.24,11.24,0,0,1-2,.2,7.86,7.86,0,0,1-3.8-.8,8.93,8.93,0,0,1-3-2.5,11.41,11.41,0,0,1-1.9-4.3,22.25,22.25,0,0,1-.7-6.1,21.71,21.71,0,0,1,.7-5.9,13.62,13.62,0,0,1,1.9-4.4,7.93,7.93,0,0,1,2.9-2.6,8.19,8.19,0,0,1,3.8-.9,8.4,8.4,0,0,1,3.1.5,11.29,11.29,0,0,1,3.4,1.8v4.1h-.2a9.17,9.17,0,0,0-3.2-2.6,6.45,6.45,0,0,0-3.3-.8,5.19,5.19,0,0,0-2.7.7,7.86,7.86,0,0,0-2.1,2,11,11,0,0,0-1.4,3.3,21.85,21.85,0,0,0-.5,4.7,22.83,22.83,0,0,0,.5,4.8,7.92,7.92,0,0,0,1.4,3.2,6.63,6.63,0,0,0,2.1,2,4.75,4.75,0,0,0,2.6.6,6.65,6.65,0,0,0,3.4-.9,10.41,10.41,0,0,0,3-2.6h.2Z"/>
      <path id="path204" class="cls-1" d="M514.6,114.4H491.8V78.8h22.8v6.9H499.9v6.1h13.7v6.9H499.9v8.8h14.7Z"/>
    </g>
    <path id="path208" d="M472.1,153.3a12.31,12.31,0,0,1,4.4.8,6.44,6.44,0,0,1,3.1,2,5.24,5.24,0,0,1,1.1,1.9,10.42,10.42,0,0,1,.4,2.8V164H463.3v-3.2a7.78,7.78,0,0,1,.4-2.9,5.24,5.24,0,0,1,1-1.8,6.61,6.61,0,0,1,3-2,12.31,12.31,0,0,1,4.4-.8Zm0,1.8a11.3,11.3,0,0,0-3.5.5,5.34,5.34,0,0,0-2.2,1.5,12.9,12.9,0,0,0-.9,1.6,10.31,10.31,0,0,0-.2,2v1.6H479v-1.6a12.48,12.48,0,0,0-.2-2.1,4.69,4.69,0,0,0-.9-1.7,6.36,6.36,0,0,0-2.2-1.4,17.1,17.1,0,0,0-3.6-.4Z"/>
    <path id="path210" d="M481.1,143.2v7.6H464.8v-7.6h2v6h4.5v-6h2v6h6.1v-6Z"/>
    <path id="path212" d="M469.7,133.2a6.45,6.45,0,0,1,2,.3,7.74,7.74,0,0,1,1.6.7,3.13,3.13,0,0,1,1.2,1.4,5.44,5.44,0,0,1,.4,2v1.5H481v1.5H464.7v-3.2a9,9,0,0,1,.2-1.8,4.15,4.15,0,0,1,.7-1.3,6.45,6.45,0,0,1,1.6-1.1,10.37,10.37,0,0,0,2.5,0Zm0,1.7a6.8,6.8,0,0,0-1.5.2,8.79,8.79,0,0,0-1,.6,1.35,1.35,0,0,0-.5.9,4.48,4.48,0,0,0-.1,1.2v1.5h6.6V138a6.05,6.05,0,0,0-.2-1.5,2.29,2.29,0,0,0-.7-1,2.7,2.7,0,0,0-1.1-.5,7.57,7.57,0,0,0-1.5-.1Z"/>
    <path id="path214" d="M481.1,122.2v1.7l-4.6,1.1v5l4.6,1.1v1.6l-16.3-4.2v-2Zm-6.5,3.2-8.1,2,8.1,2Z"/>
    <path id="path216" d="M481.1,110.9v2l-6.5,3.9V119h6.5v1.5H464.8v-3.2a9,9,0,0,1,.2-1.8,4.49,4.49,0,0,1,.6-1.2,7.1,7.1,0,0,1,1.4-1,4.38,4.38,0,0,1,2.1-.4,7.31,7.31,0,0,1,3,.6,3.72,3.72,0,0,1,1.7,1.8Zm-11.8,3.6a3.73,3.73,0,0,0-1.2.2,1.8,1.8,0,0,0-.9.6,3.51,3.51,0,0,0-.5.8,3.75,3.75,0,0,0-.1,1.1V119h6.2v-1.6a4.12,4.12,0,0,0-.1-1.2,3.33,3.33,0,0,0-.6-1,1.6,1.6,0,0,0-1-.5,5.84,5.84,0,0,0-1.8-.2Z"/>
    <path id="path218" d="M466.7,101.2v4.1h14.4v1.5H466.7v4.1h-2v-9.7Z"/>
    <path id="path220" d="M481.1,89.4v1.5H467l9.6,3.2V95L467,98.2h14.1v1.4H464.8V97.5l9.1-3.1-9.1-3V89.3Z"/>
    <path id="path222" d="M481.1,78.7v7.6H464.8V78.7h2v6h4.5v-6h2v6h6.1v-6Z"/>
    <path id="path224" d="M481.1,67.5v1.9l-14.7,5.4h14.7v1.4H464.8V73.8l13.3-5H464.8V67.4h16.3Z"/>
    <path id="path226" d="M466.7,56.2v4.1h14.4v1.5H466.7v4.1h-2V56.2Z"/>
    <path id="path228" d="M466.5,40.5a11.6,11.6,0,0,1,2.7-1.1,13.22,13.22,0,0,1,3.6-.4,12.77,12.77,0,0,1,3.6.4,7,7,0,0,1,2.6,1.1,5.17,5.17,0,0,1,1.6,1.7,4.33,4.33,0,0,1,0,4.4,6.48,6.48,0,0,1-1.6,1.7,11.17,11.17,0,0,1-6.2,1.5,13.22,13.22,0,0,1-3.6-.4,8.44,8.44,0,0,1-2.7-1.1,5.17,5.17,0,0,1-1.6-1.7,4.28,4.28,0,0,1-.6-2.2,4,4,0,0,1,.6-2.2,8.52,8.52,0,0,1,1.6-1.7Zm6.4.2a10.86,10.86,0,0,0-4.9,1,3.17,3.17,0,0,0-1.7,2.7,3.32,3.32,0,0,0,1.7,2.8,9.2,9.2,0,0,0,4.9,1,10,10,0,0,0,5-1.1,3,3,0,0,0,0-5.4A10.34,10.34,0,0,0,472.9,40.7Z"/>
    <path id="path230" d="M466.7,29.3v5.8h4.6v-5h2v5h7.8v1.5H464.8V29.2l1.9.1Z"/>
  </g>
  <g id="BUET-Text">
    <g>
      <path class="cls-1" d="M192.5,51.3V30.6H203c2.2,0,3.8.5,4.8,1.6a5.54,5.54,0,0,1,1.5,3.8,4.68,4.68,0,0,1-.9,2.8,4.43,4.43,0,0,1-2.6,1.7c2.7.6,4,2.2,4,4.8a6.77,6.77,0,0,1-1.4,4.1c-.9,1.2-3,1.8-6,1.8h-9.9Zm5.8-12.8h2.9a2,2,0,0,0,1.6-.6,2.08,2.08,0,0,0,.5-1.2c0-1.2-.7-1.7-2.1-1.7h-2.8v3.5Zm0,8.2h3.1a2.2,2.2,0,0,0,1.7-.6,1.66,1.66,0,0,0,.5-1.3,2.11,2.11,0,0,0-.5-1.3,2.4,2.4,0,0,0-1.9-.6h-2.9v3.8Z"/>
      <path d="M227.5,51.3h-2.8l-1.2-3.4H218l-1.1,3.4h-2.2l4.8-14.5h3.2Zm-4.6-5.6-2.1-6.5-2.1,6.5Z"/>
      <path d="M242.9,51.3h-2.5l-5.5-9.2c-.1-.1-.2-.4-.4-.7-.1-.1-.2-.4-.4-.7V51.3H232V36.8h2.9l5.1,8.5a11.1,11.1,0,0,0,.9,1.6V36.8H243V51.3Z"/>
      <path d="M259.9,43.9v7.4h-1.2l-.8-1.9a4.22,4.22,0,0,1-3.9,2.2,4.84,4.84,0,0,1-4.4-2.2,9.08,9.08,0,0,1-1.5-5.2,8.55,8.55,0,0,1,1.6-5.3,5.55,5.55,0,0,1,4.6-2.2,4.84,4.84,0,0,1,3.6,1.3,6,6,0,0,1,1.8,3.2l-2.3.4c-.4-1.8-1.4-2.6-3-2.6a2.88,2.88,0,0,0-2.5,1.3,6.4,6.4,0,0,0-1,3.8c0,3.7,1.1,5.5,3.4,5.5a2.94,2.94,0,0,0,2.2-.9,3.24,3.24,0,0,0,.9-2.4h-3V44.2h5.5Z"/>
      <path d="M274.5,51.3h-8.9V36.8h2.7V48.9h6.2v2.4Z"/>
      <path d="M290.5,51.3h-2.8l-1.2-3.4H281l-1.1,3.4h-2.2l4.8-14.5h3.2Zm-4.6-5.6-2.1-6.5-2.1,6.5Z"/>
      <path d="M295,51.3V36.8h5.3a5.67,5.67,0,0,1,4.7,2.1,7.65,7.65,0,0,1,1.8,5.2,7.39,7.39,0,0,1-1.8,5.1,6.64,6.64,0,0,1-5.3,2.1Zm2.7-2.2h2.2a3.8,3.8,0,0,0,3-1.3,5.69,5.69,0,0,0,1.2-3.9,6.15,6.15,0,0,0-1.1-3.6,3.22,3.22,0,0,0-2.8-1.5h-2.5V49.1Z"/>
      <path d="M321.4,51.3H312V36.8h9.3V39h-6.7v3.9H320V45h-5.4v4h6.8v2.3Z"/>
      <path d="M325,47.8l2.5-.5c.3,1.4,1.5,2.2,3.5,2.2a3.28,3.28,0,0,0,2.1-.6,1.62,1.62,0,0,0,.7-1.4,2,2,0,0,0-.3-1.1,2.56,2.56,0,0,0-1.5-.8l-2.8-.7a7.09,7.09,0,0,1-2.1-.8,3.48,3.48,0,0,1-1.1-1.3,4.17,4.17,0,0,1,1-4.9,5.67,5.67,0,0,1,3.7-1.2,7,7,0,0,1,3.3.8,3.94,3.94,0,0,1,1.9,2.3l-2.5.6a2.52,2.52,0,0,0-2.7-1.6,3.56,3.56,0,0,0-1.9.5,1.61,1.61,0,0,0-.6,1.3c0,.8.7,1.4,2,1.7l2.5.6a4.78,4.78,0,0,1,3,1.7,4.07,4.07,0,0,1,.8,2.4,4.12,4.12,0,0,1-1.6,3.4,7,7,0,0,1-4.2,1.2,7.9,7.9,0,0,1-3.8-.9A4,4,0,0,1,325,47.8Z"/>
      <path d="M352.4,51.3h-2.6V45h-5.5v6.3h-2.6V36.8h2.6v5.9h5.5V36.8h2.6Z"/>
      <path class="cls-1" d="M223.6,67.8V81.5c0,2.6-.8,4.5-2.3,5.6a9.93,9.93,0,0,1-6,1.7,10.91,10.91,0,0,1-6.3-1.6,6,6,0,0,1-2.4-5.3v-14H213V81.2a3.4,3.4,0,0,0,.6,2.2,2.44,2.44,0,0,0,2,.7,3.56,3.56,0,0,0,1.9-.5,1.86,1.86,0,0,0,.9-1.1,13.58,13.58,0,0,0,.1-2.4V67.8Z"/>
      <path d="M241.6,88.5h-2.5l-5.5-9.2c-.1-.1-.2-.4-.4-.7-.1-.1-.2-.4-.4-.7V88.5h-2.1V74h2.9l5.1,8.5a11.1,11.1,0,0,0,.9,1.6V74h2.1V88.5Z"/>
      <path d="M250.2,88.5h-2.6V74h2.6Z"/>
      <path d="M261.7,88.5h-2.6L254.6,74h2.8l3.3,11.1L264.1,74h2.2Z"/>
      <path d="M280.1,88.5h-9.4V74H280v2.2h-6.7v3.9h5.4v2.1h-5.4v4h6.8v2.3Z"/>
      <path d="M296.4,88.5h-2.8l-2.2-5.9h-3.7v5.9h-2.6V74h6.3a5.25,5.25,0,0,1,3.8,1.2,4.14,4.14,0,0,1,1.2,3.1,3.79,3.79,0,0,1-2.6,3.8Zm-8.7-8.1h3.2a3.28,3.28,0,0,0,2.1-.6,1.86,1.86,0,0,0,.7-1.6,1.8,1.8,0,0,0-.7-1.5,2.88,2.88,0,0,0-1.9-.6h-3.5v4.3Z"/>
      <path d="M300.3,85l2.5-.5c.3,1.4,1.5,2.2,3.5,2.2a3.28,3.28,0,0,0,2.1-.6,1.62,1.62,0,0,0,.7-1.4,2,2,0,0,0-.3-1.1,2.56,2.56,0,0,0-1.5-.8l-2.8-.7a7.09,7.09,0,0,1-2.1-.8,3.48,3.48,0,0,1-1.1-1.3,4.17,4.17,0,0,1,1-4.9,5.67,5.67,0,0,1,3.7-1.2,7,7,0,0,1,3.3.8,3.94,3.94,0,0,1,1.9,2.3l-2.5.6A2.52,2.52,0,0,0,306,76a3.56,3.56,0,0,0-1.9.5,1.61,1.61,0,0,0-.6,1.3c0,.8.7,1.4,2,1.7l2.5.6a4.78,4.78,0,0,1,3,1.7,4.07,4.07,0,0,1,.8,2.4,4.12,4.12,0,0,1-1.6,3.4,7,7,0,0,1-4.2,1.2,7.9,7.9,0,0,1-3.8-.9A4.31,4.31,0,0,1,300.3,85Z"/>
      <path d="M319.6,88.5H317V74h2.6Z"/>
      <path d="M330.6,88.5h-2.8V76.2H324V74h10.5v2.2h-3.8V88.5Z"/>
      <path d="M345.5,88.5h-2.8V82.4L337.8,74H341l3.4,6,3.3-6h2.5l-4.7,8.4Z"/>
      <path d="M371.3,88.7a5.24,5.24,0,0,1-4.5-2.2,9.34,9.34,0,0,1,.1-10.6,5.87,5.87,0,0,1,9,0,8.36,8.36,0,0,1,1.6,5.3,8.5,8.5,0,0,1-1.7,5.4A5.41,5.41,0,0,1,371.3,88.7Zm.1-2.1a3.13,3.13,0,0,0,2.4-1.2,7.15,7.15,0,0,0,1-4.2,8.11,8.11,0,0,0-.8-3.9,2.74,2.74,0,0,0-2.5-1.4q-3.3,0-3.3,5.4a7.41,7.41,0,0,0,.9,4A2.42,2.42,0,0,0,371.4,86.6Z"/>
      <path d="M385.4,88.5h-2.7V74h9.1v2.2h-6.5v4h5.1v2.2h-5.1v6.1Z"/>
      <path class="cls-1" d="M222.4,120.7v4.9H206.9V105h15.5v4.8H213v3h7.5v4.6H213v3.4h9.4Z"/>
      <path d="M238.7,125.7h-2.5l-5.5-9.2c-.1-.1-.2-.4-.4-.7-.1-.1-.2-.4-.4-.7v10.6h-2.1V111.2h2.9l5.1,8.5a11.1,11.1,0,0,0,.9,1.6V111.2h2.1v14.5Z"/>
      <path d="M255,118.3v7.4h-1.2l-.8-2a4.22,4.22,0,0,1-3.9,2.2,4.84,4.84,0,0,1-4.4-2.2,9.08,9.08,0,0,1-1.5-5.2,8.55,8.55,0,0,1,1.6-5.3,5.55,5.55,0,0,1,4.6-2.2,4.84,4.84,0,0,1,3.6,1.3,6,6,0,0,1,1.8,3.2l-2.3.4c-.4-1.8-1.4-2.6-3-2.6a3,3,0,0,0-2.5,1.2,6.4,6.4,0,0,0-1,3.8c0,3.7,1.1,5.5,3.4,5.5a2.94,2.94,0,0,0,2.2-.9,3.24,3.24,0,0,0,.9-2.4h-3v-2.1H255Z"/>
      <path d="M262.8,125.7h-2.6V111.2h2.6Z"/>
      <path d="M279,125.7h-2.5l-5.5-9.2c-.1-.1-.2-.4-.4-.7-.1-.1-.2-.4-.4-.7v10.6h-2.1V111.2H271l5.1,8.5a11.1,11.1,0,0,0,.9,1.6V111.2h2.1v14.5Z"/>
      <path d="M293.8,125.7h-9.4V111.2h9.3v2.2H287v3.9h5.4v2.1H287v4h6.8Z"/>
      <path d="M307.6,125.7h-9.4V111.2h9.3v2.2h-6.7v3.9h5.4v2.1h-5.4v4h6.8v2.3Z"/>
      <path d="M323.3,125.7h-2.8l-2.2-5.9h-3.7v5.9H312V111.2h6.3a5.25,5.25,0,0,1,3.8,1.2,4.14,4.14,0,0,1,1.2,3.1,3.79,3.79,0,0,1-2.6,3.8Zm-8.7-8.1h3.2a3.28,3.28,0,0,0,2.1-.6,1.86,1.86,0,0,0,.7-1.6,1.8,1.8,0,0,0-.7-1.5,2.88,2.88,0,0,0-1.9-.6h-3.5v4.3Z"/>
      <path d="M330.7,125.7h-2.6V111.2h2.6Z"/>
      <path d="M347,125.7h-2.5l-5.5-9.2c-.1-.1-.2-.4-.4-.7-.1-.1-.2-.4-.4-.7v10.6h-2.1V111.2H339l5.1,8.5a11.1,11.1,0,0,0,.9,1.6V111.2h2.1v14.5Z"/>
      <path d="M363.3,118.3v7.4h-1.2l-.8-2a4.22,4.22,0,0,1-3.9,2.2,4.84,4.84,0,0,1-4.4-2.2,9.08,9.08,0,0,1-1.5-5.2,8.55,8.55,0,0,1,1.6-5.3,5.55,5.55,0,0,1,4.6-2.2,4.84,4.84,0,0,1,3.6,1.3,6,6,0,0,1,1.8,3.2l-2.3.4c-.4-1.8-1.4-2.6-3-2.6a3,3,0,0,0-2.5,1.2,6.4,6.4,0,0,0-1,3.8c0,3.7,1.1,5.5,3.4,5.5a2.94,2.94,0,0,0,2.2-.9,3.24,3.24,0,0,0,.9-2.4h-3v-2.1h5.5Z"/>
      <path d="M389.6,117.6l2,.4a9.38,9.38,0,0,1-2.4,5,5.8,5.8,0,0,0,1,.9,1.88,1.88,0,0,0,.8.2h.6V126h-.9a3.34,3.34,0,0,1-1.5-.3,6.44,6.44,0,0,1-1.5-1.2,7,7,0,0,1-4.4,1.4,5.22,5.22,0,0,1-3.6-1.2,3.89,3.89,0,0,1-1.4-3,3.32,3.32,0,0,1,.7-2.1,6.69,6.69,0,0,1,2.8-2,4.08,4.08,0,0,1-1.2-2.5,2.39,2.39,0,0,1,1-2.1,4.15,4.15,0,0,1,2.5-.8,4.46,4.46,0,0,1,2.6.8,2.39,2.39,0,0,1,1,2.1,2.74,2.74,0,0,1-.7,1.8,5.53,5.53,0,0,1-1.9,1.4l2.9,3.3A8.27,8.27,0,0,0,389.6,117.6Zm-6.6,1.5c-1.3.6-2,1.4-2,2.5a2.14,2.14,0,0,0,.8,1.7,3.17,3.17,0,0,0,2,.6,4.39,4.39,0,0,0,2.7-.9Zm1-2.3c1.1-.5,1.7-1.1,1.7-1.8a1,1,0,0,0-.4-.9,1.82,1.82,0,0,0-2,0,1,1,0,0,0-.4.9A2.56,2.56,0,0,0,384,116.8Z"/>
      <path class="cls-1" d="M201,147.2v15.7h-6V147.2h-4.3v-5h14.6v5Z"/>
      <path d="M220.2,162.9h-9.4V148.4h9.3v2.2h-6.7v3.9h5.4v2.1h-5.4v4h6.8v2.3Z"/>
      <path d="M233.3,157.8l2.4.3a6.08,6.08,0,0,1-1.7,3.6,5.38,5.38,0,0,1-3.8,1.4,4.72,4.72,0,0,1-3.2-1,6.62,6.62,0,0,1-1.9-2.7,11.18,11.18,0,0,1-.7-3.8,8.46,8.46,0,0,1,1.6-5.4,5,5,0,0,1,4.3-2.1,5.15,5.15,0,0,1,3.6,1.3,5.71,5.71,0,0,1,1.8,3.8l-2.4.3c-.4-2.2-1.4-3.3-2.9-3.3a2.65,2.65,0,0,0-2.3,1.4,8.11,8.11,0,0,0-.8,3.9,7.18,7.18,0,0,0,.9,4,2.56,2.56,0,0,0,2.3,1.3,2.32,2.32,0,0,0,1.9-.9A3.4,3.4,0,0,0,233.3,157.8Z"/>
      <path d="M251.3,162.9h-2.6v-6.3h-5.5v6.3h-2.6V148.4h2.6v5.9h5.5v-5.9h2.6Z"/>
      <path d="M268.2,162.9h-2.5l-5.5-9.2c-.1-.1-.2-.4-.4-.7-.1-.1-.2-.4-.4-.7v10.6h-2.1V148.4h2.9l5.1,8.5a11.1,11.1,0,0,0,.9,1.6V148.4h2.1v14.5Z"/>
      <path d="M279.5,163.1a5.24,5.24,0,0,1-4.5-2.2,9.34,9.34,0,0,1,.1-10.6,5.87,5.87,0,0,1,9,0,8.36,8.36,0,0,1,1.6,5.3A8.5,8.5,0,0,1,284,161,5.68,5.68,0,0,1,279.5,163.1Zm0-2.1a3.13,3.13,0,0,0,2.4-1.2,7.15,7.15,0,0,0,1-4.2,8.11,8.11,0,0,0-.8-3.9,2.74,2.74,0,0,0-2.5-1.4q-3.3,0-3.3,5.4a7.41,7.41,0,0,0,.9,4A2.42,2.42,0,0,0,279.5,161Z"/>
      <path d="M299.8,162.9h-8.9V148.4h2.7v12.1h6.2v2.4Z"/>
      <path d="M309.4,163.1a5.24,5.24,0,0,1-4.5-2.2,9.34,9.34,0,0,1,.1-10.6,5.87,5.87,0,0,1,9,0,8.36,8.36,0,0,1,1.6,5.3,8.5,8.5,0,0,1-1.7,5.4A5.41,5.41,0,0,1,309.4,163.1Zm0-2.1a3.13,3.13,0,0,0,2.4-1.2,7.15,7.15,0,0,0,1-4.2,8.11,8.11,0,0,0-.8-3.9,2.74,2.74,0,0,0-2.5-1.4q-3.3,0-3.3,5.4a7.41,7.41,0,0,0,.9,4A2.65,2.65,0,0,0,309.4,161Z"/>
      <path d="M331.8,155.5v7.4h-1.2l-.8-2a4.22,4.22,0,0,1-3.9,2.2,4.84,4.84,0,0,1-4.4-2.2,9.08,9.08,0,0,1-1.5-5.2,8.55,8.55,0,0,1,1.6-5.3,5.55,5.55,0,0,1,4.6-2.2,4.84,4.84,0,0,1,3.6,1.3,6,6,0,0,1,1.8,3.2l-2.3.4c-.4-1.8-1.4-2.6-3-2.6a3,3,0,0,0-2.5,1.2,6.4,6.4,0,0,0-1,3.8c0,3.7,1.1,5.5,3.4,5.5a2.94,2.94,0,0,0,2.2-.9,3.24,3.24,0,0,0,.9-2.4h-3v-2.1h5.5Z"/>
      <path d="M342.6,162.9h-2.8v-6.1l-4.9-8.4h3.2l3.4,6,3.3-6h2.5l-4.7,8.4Z"/>
    </g>
  </g>
  <g id="GearOuter">
    <path id="path101" class="cls-1" d="M103.7,183.8l2.3-8.6c1.8-.1,3.6-.3,5.2-.5l3.8,8c.9-.1,1.9-.4,2.8-.5a28,28,0,0,0,2.8-.6l.5-8.9c1.8-.5,3.4-1,5.1-1.5l5.3,7.1c.9-.4,1.8-.6,2.7-1.1s1.8-.6,2.7-1.1l-1.3-8.9a30.35,30.35,0,0,0,4.7-2.5l6.7,6.1,2.4-1.5c.8-.5,1.5-1.1,2.3-1.6l-3-8.4c1.4-1.1,2.8-2.2,4.1-3.4l7.7,4.6c.6-.6,1.3-1.3,2-1.9a18,18,0,0,0,1.9-2l-4.6-7.7a43.46,43.46,0,0,0,3.4-4.1l8.4,3c.5-.8,1.1-1.6,1.6-2.3l1.5-2.4-6-6.7a35,35,0,0,0,2.5-4.7l8.9,1.3c.4-.9.8-1.8,1.1-2.7s.6-1.8,1.1-2.7l-7.1-5.3a38,38,0,0,0,1.5-5.1l8.9-.5c.1-.9.4-1.9.5-2.8s.4-1.9.5-2.8l-8-3.8a45.73,45.73,0,0,0,.5-5.2l8.6-2.2V94.2L179.1,92c-.1-1.8-.3-3.6-.5-5.2l8-3.8c-.1-.9-.4-1.9-.5-2.8s-.4-1.9-.5-2.8l-8.9-.5c-.5-1.6-1-3.4-1.5-5.1l7.1-5.3c-.4-.9-.6-1.8-1.1-2.7a14.46,14.46,0,0,0-1.1-2.5l-8.8,1.1a35.7,35.7,0,0,0-2.5-4.7l6-6.6-1.5-2.4c-.5-.8-1.1-1.6-1.6-2.3l-8.4,2.9c-1.1-1.4-2.2-2.8-3.4-4.1l4.6-7.7c-.6-.6-1.3-1.3-1.9-2s-1.3-1.3-2-1.9l-7.7,4.6c-1.3-1.1-2.7-2.3-4.1-3.4l3-8.4c-.8-.5-1.6-1.1-2.3-1.6s-1.6-1.1-2.4-1.5l-6.7,6.1a35,35,0,0,0-4.7-2.5l1.3-8.8c-.9-.4-1.8-.8-2.7-1.1a22.94,22.94,0,0,1-2.8-.9l-5.3,7.1c-1.6-.5-3.3-1.1-5.1-1.5l-.5-8.9a28,28,0,0,0-2.8-.6c-1-.1-1.9-.4-2.8-.5l-3.8,8a45.73,45.73,0,0,0-5.2-.5l-2.3-8.6a28.1,28.1,0,0,0-2.9-.1H97.9l-2.2,8.6c-1.8.1-3.6.3-5.2.5l-3.8-8c-1,.1-1.9.4-2.8.5a23,23,0,0,0-2.8.6h0l-.5,8.9q-2.4.75-5.1,1.5l-5.3-7.2A14.46,14.46,0,0,0,67.7,17c-.9.4-1.8.8-2.7,1.1l1.3,8.8c-1.5.8-3.2,1.6-4.7,2.5L55,23l-2.4,1.5a18.82,18.82,0,0,0-2.3,1.6l2.9,8.4c-1.4,1.1-2.8,2.2-4.1,3.3l-7.7-4.6c-.6.6-1.3,1.3-2,1.9s-1.3,1.4-1.9,2l4.6,7.7c-1.1,1.4-2.3,2.7-3.4,4.1L30.3,46a22.89,22.89,0,0,0-1.6,2.3,19.4,19.4,0,0,0-1.5,2.4l6.1,6.6A35,35,0,0,0,30.8,62L22,60.7c-.4.9-.8,1.8-1.1,2.7l-1.1,2.5,7.1,5.3c-.5,1.8-1.1,3.4-1.5,5.1l-8.9.5c-.3,1-.4,1.9-.6,2.8a19.59,19.59,0,0,1-.4,2.9l8.1,3.8a50.54,50.54,0,0,0-.5,5.2L14.2,94v5.7l8.6,2.3c.1,1.8.3,3.6.5,5.2l-8,3.8c.1.9.4,1.9.5,2.8a28,28,0,0,0,.6,2.8l8.9.5c.5,1.8,1,3.4,1.5,5.1l-7.2,5.3c.4.9.6,1.8,1.1,2.7s1.1,2.7,1.1,2.7l8.9-1.3c.8,1.6,1.6,3.2,2.5,4.7L27.1,143c.5.8,1,1.5,1.5,2.4s1.5,2.3,1.5,2.3l8.5-3c1.1,1.4,2.2,2.8,3.3,4.1l-4.6,7.7c.6.6,1.3,1.3,1.9,2s1.4,1.4,2,1.9l7.7-4.6c1.4,1.3,2.7,2.3,4.1,3.4l-3,8.4a22.89,22.89,0,0,0,2.3,1.6c.8.5,1.5,1,2.4,1.5l6.6-5.8a35,35,0,0,0,4.7,2.5l-1.1,8.9c.9.4,1.8.6,2.7,1.1a14.46,14.46,0,0,1,2.5,1.1l5.3-7.1c1.8.6,3.4,1.1,5.1,1.5l.5,8.9c1,.3,1.9.4,2.8.6s1.9.4,2.8.5l3.8-8a50.54,50.54,0,0,0,5.2.5l2.2,8.6m69.43-86.95A66.28,66.28,0,1,1,101,30.77,66.27,66.27,0,0,1,167.23,97.05Z"/>
  </g>
</svg>
